{
  "accessors": [
    {
      "name": "Teapot001_1_0_positions",
      "componentType": 5126,
      "count": 2278,
      "min": [
        -46.39619827270508,
        0,
        -30.93079948425293
      ],
      "max": [
        53.09510040283203,
        48.715999603271484,
        30.93079948425293
      ],
      "type": "VEC3",
      "bufferView": 0,
      "byteOffset": 0
    },
    {
      "name": "Teapot001_1_0_normals",
      "componentType": 5126,
      "count": 2278,
      "min": [
        -0.9995793700218201,
        -1,
        -0.9999988675117493
      ],
      "max": [
        0.9994012117385864,
        1,
        0.9999986886978149
      ],
      "type": "VEC3",
      "bufferView": 1,
      "byteOffset": 0
    },
    {
      "name": "Teapot001_1_0_texcoords",
      "componentType": 5126,
      "count": 2278,
      "min": [
        0,
        -1
      ],
      "max": [
        2,
        1
      ],
      "type": "VEC2",
      "bufferView": 2,
      "byteOffset": 0
    },
    {
      "name": "Teapot001_1_0_indices",
      "componentType": 5123,
      "count": 12288,
      "min": [
        0
      ],
      "max": [
        2277
      ],
      "type": "SCALAR",
      "bufferView": 3,
      "byteOffset": 0
    }
  ],
  "asset": {
    "generator": "obj2gltf",
    "version": "2.0"
  },
  "buffers": [
    {
      "name": "teapot",
      "byteLength": 413112,
      "uri": "data:application/octet-stream;base64,"
    }
  ],
  "bufferViews": [
    {
      "name": "bufferView_0",
      "buffer": 0,
      "byteLength": 27336,
      "byteOffset": 0,
      "byteStride": 12,
      "target": 34962
    },
    {
      "name": "bufferView_1",
      "buffer": 0,
      "byteLength": 27336,
      "byteOffset": 27336,
      "byteStride": 12,
      "target": 34962
    },
    {
      "name": "bufferView_2",
      "buffer": 0,
      "byteLength": 18224,
      "byteOffset": 54672,
      "byteStride": 8,
      "target": 34962
    },
    {
      "name": "bufferView_3",
      "buffer": 0,
      "byteLength": 24576,
      "byteOffset": 72896,
      "target": 34963
    },
    {
      "buffer": 0,
      "byteOffset": 97472,
      "byteLength": 179149
    },
    {
      "buffer": 0,
      "byteOffset": 276621,
      "byteLength": 136488
    }
  ],
  "images": [
    {
      "name": "color",
      "mimeType": "image/jpeg",
      "bufferView": 4
    },
    {
      "name": "bump",
      "mimeType": "image/jpeg",
      "bufferView": 5
    }
  ],
  "materials": [
    {
      "name": "09___Default",
      "pbrMetallicRoughness": {
        "baseColorTexture": {
          "index": 0
        },
        "baseColorFactor": [
          1,
          1,
          1,
          1
        ],
        "metallicFactor": 0,
        "roughnessFactor": 1
      },
      "normalTexture": {
        "index": 1
      },
      "emissiveFactor": [
        0,
        0,
        0
      ],
      "alphaMode": "OPAQUE",
      "doubleSided": false
    }
  ],
  "meshes": [
    {
      "name": "Teapot001_1",
      "primitives": [
        {
          "attributes": {
            "POSITION": 0,
            "NORMAL": 1,
            "TEXCOORD_0": 2
          },
          "indices": 3,
          "material": 0,
          "mode": 4
        }
      ]
    }
  ],
  "nodes": [
    {
      "name": "Teapot001",
      "mesh": 0
    }
  ],
  "samplers": [
    {
      "wrapS": 10497,
      "wrapT": 10497
    }
  ],
  "scene": 0,
  "scenes": [
    {
      "nodes": [
        0
      ]
    }
  ],
  "textures": [
    {
      "name": "color",
      "sampler": 0,
      "source": 0
    },
    {
      "name": "bump",
      "sampler": 0,
      "source": 1
    }
  ]
}
